# xmcd CD database file generated by OrangeCD 6.4
#
# Track frame offsets:
#	150
#	10275
#	23325
#	34575
#	47662
#	60750
#	75000
#	87337
#	101400
#	114225
#	125175
#	140512
#	152175
#	166800
#	178347
#	187647
#	202947
#	213600
#	225300
#	236400
#	245887
#	261787
#	271575
#	282825
#	294825
#
# Disc length: 4065 seconds
#
# Revision: 2
# Processed by: cddbd v1.5.2PL0 Copyright (c) Steve Scherf et al.
# Submitted via: OrangeCD 6.4
#
DISCID=3b0fdf19
DTITLE=Joe Val - Diamond Joe
DYEAR=1995
DGENRE=Other
TTITLE0=Lonesome Road Blues
TTITLE1=Just Wondering Why
TTITLE2=Not A Word From Home
TTITLE3=T For Texas
TTITLE4=Long Time Gone
TTITLE5=Poor Ellen Smith
TTITLE6=Mother's Prayer
TTITLE7=Diamond Joe
TTITLE8=I Hear A Sweet Voice
TTITLE9=Wrong Road Again
TTITLE10=Sparkling Brown Eyes
TTITLE11=I've Been All Around This World
TTITLE12=Rocking Alone In An Old Rocking Chair
TTITLE13=Yellow Rose Of Texas
TTITLE14=Cold Wind
TTITLE15=Don't Sell Daddy Any More Whiskey
TTITLE16=A Voice From On High
TTITLE17='Neath A Cold Gray Tomb Of Stone
TTITLE18=Why Don't You Tell Me So
TTITLE19=When The Cactus Is In Bloom
TTITLE20=When The Golden Leaves Begin To Fall
TTITLE21=Stormy Waters
TTITLE22=God Loves His Children
TTITLE23=The Angels Rejoiced
TTITLE24=Goodbye Old Pal
EXTD=
EXTT0=
EXTT1=
EXTT2=
EXTT3=
EXTT4=
EXTT5=
EXTT6=
EXTT7=
EXTT8=
EXTT9=
EXTT10=
EXTT11=
EXTT12=
EXTT13=
EXTT14=
EXTT15=
EXTT16=
EXTT17=
EXTT18=
EXTT19=
EXTT20=
EXTT21=
EXTT22=
EXTT23=
EXTT24=
PLAYORDER=
